#!OML:ASF F:\VICON\USERDATA\INSTALL\rory3\rory3.ASF
:FULLY-SPECIFIED
:DEGREES
2300
root 1.83135 17.2471 -28.1836 -0.732821 -53.403 -358.723
lowerback 31.5769 -0.429308 0.398684
upperback 4.26948 -0.17684 4.05825
thorax -11.6943 -0.168866 4.2277
lowerneck -9.10546 9.01383 3.75405
upperneck 14.8743 13.6644 -12.3338
head 7.19302 5.8023 -3.27902
rclavicle 6.63941e-014 1.03368e-014
rhumerus -27.7461 8.73736 -80.6858
rradius 55.6384
rwrist 6.79151
rhand -20.9383 7.65585
rfingers 7.12502
rthumb 5.43395 -22.2545
lclavicle 6.63941e-014 1.03368e-014
lhumerus -11.6618 -1.04802 90.3482
lradius 47.3631
lwrist -30.6384
lhand 154.774 -124.324
lfingers 7.12502
lthumb -178.707 2425.65
rfemur -29.0456 2.27581 14.1564
rtibia 42.6948
rfoot -9.98713 -11.9545
rtoes 6.24657
lfemur -14.4189 0.0466415 -14.7616
ltibia 63.3365
lfoot -2.66502 -7.85449
ltoes -15.1977
2301
root 1.7698 17.273 -28.0751 0.4159 -52.5603 -359.262
lowerback 30.4223 -1.15396 1.63399
upperback 4.21288 -0.73464 3.9173
thorax -11.229 -0.469583 3.59117
lowerneck -9.04728 9.06265 3.69905
upperneck 14.9652 13.7497 -12.3472
head 7.21694 5.8357 -3.26717
rclavicle 3.22031e-014 8.74653e-015
rhumerus -26.6174 9.75885 -81.8495
rradius 54.5484
rwrist 6.51781
rhand -20.9941 8.32245
rfingers 7.12502
rthumb 5.38007 -21.5893
lclavicle 3.22031e-014 8.74653e-015
lhumerus -11.851 -1.56583 90.3877
lradius 46.468
lwrist -33.098
lhand 160.098 -124.573
lfingers 7.12502
lthumb -173.565 2425.31
rfemur -29.1665 1.49193 14.2767
rtibia 42.567
rfoot -10.4283 -11.9911
rtoes 8.55771
lfemur -16.2273 -0.389444 -14.4909
ltibia 63.5542
lfoot -2.98948 -6.89513
ltoes -11.9163
2302
root 1.7073 17.286 -28.032 0.517696 -52.4383 -359.508
lowerback 30.7825 -1.1107 1.49122
upperback 4.16599 -0.681565 4.17086
thorax -11.4401 -0.436873 3.93201
lowerneck -9.24207 9.26432 3.9549
upperneck 15.3037 14.1155 -12.8119
head 7.44986 5.96035 -3.40238
rclavicle 3.18055e-015 2.22639e-014
rhumerus -25.6111 11.276 -82.5956
rradius 53.5682
rwrist 5.85291
rhand -20.7278 8.92506
rfingers 7.12502
rthumb 5.63717 -20.98
lclavicle 3.18055e-015 2.22639e-014
lhumerus -11.8347 -3.40513 90.5755
lradius 45.1104
lwrist -33.392
lhand 161.473 -123.382
lfingers 7.12502
lthumb -172.239 2426.46
rfemur -28.6994 1.67156 14.4944
rtibia 42.5249
rfoot -10.5447 -12.4977
rtoes 3.7402
lfemur -16.9047 0.286108 -14.0459
ltibia 63.5709
lfoot -3.78358 -6.53201
ltoes -14.3433
2303
root 1.65518 17.2894 -27.9621 1.00856 -52.0634 -359.652
lowerback 30.5921 -1.03454 1.41093
upperback 3.98389 -0.544491 4.62355
thorax -11.5772 -0.358851 4.41404
lowerneck -9.23595 9.11756 3.50454
upperneck 15.5385 14.0507 -13.057
head 7.5087 5.86878 -3.41936
rclavicle 1.15295e-014 -1.27222e-014
rhumerus -24.9271 12.9042 -82.8901
rradius 52.9157
rwrist 4.97939
rhand -20.9028 8.44232
rfingers 7.12502
rthumb 5.46821 -21.4671
lclavicle 1.15295e-014 -1.27222e-014
lhumerus -12.1123 -4.21222 91.5262
lradius 44.112
lwrist -33.6473
lhand 167.187 -123.543
lfingers 7.12502
lthumb -166.727 2426.01
rfemur -28.7215 1.40905 14.4664
rtibia 42.5054
rfoot -10.8241 -12.6109
rtoes 2.85614
lfemur -18.1568 0.582349 -13.8741
ltibia 63.5987
lfoot -4.85296 -5.90391
ltoes -20.2783
2304
root 1.60335 17.3018 -27.901 1.32973 -51.7862 -359.748
lowerback 29.9615 -1.40595 2.2886
upperback 4.5504 -0.863532 3.81415
thorax -11.3692 -0.515864 3.4056
lowerneck -9.43834 9.2066 4.17984
upperneck 15.499 14.0197 -12.7717
head 7.55207 5.91327 -3.42642
rclavicle -9.34288e-014 5.1684e-014
rhumerus -23.3394 12.4854 -84.7119
rradius 51.386
rwrist 5.50284
rhand -20.5995 8.78396
rfingers 7.12502
rthumb 5.76106 -21.1177
lclavicle -9.34288e-014 5.1684e-014
lhumerus -11.9357 -5.55958 90.5972
lradius 43.4504
lwrist -32.7248
lhand 167.102 -120.077
lfingers 7.12502
lthumb -166.809 2429.49
rfemur -28.6349 1.36078 14.3773
rtibia 42.5179
rfoot -11.4953 -12.4584
rtoes 5.84379
lfemur -19.1969 0.937204 -13.6463
ltibia 63.4231
lfoot -5.68923 -5.25212
ltoes -20.209
2305
root 1.54987 17.3164 -27.8466 1.47596 -51.6448 -359.77
lowerback 30.7848 -1.12906 0.869754
upperback 3.73208 -0.73723 5.27218
thorax -11.9404 -0.405845 5.501
lowerneck -8.86171 9.23737 2.48139
upperneck 15.3339 14.3881 -13.4096
head 7.36462 5.96487 -3.35265
rclavicle -1.67774e-013 3.49861e-014
rhumerus -22.8898 15.2681 -84.0062
rradius 50.6401
rwrist 5.09221
rhand -20.559 8.32461
rfingers 7.12502
rthumb 5.80011 -21.576
lclavicle -1.67774e-013 3.49861e-014
lhumerus -12.898 -3.80048 92.5065
lradius 42.9896
lwrist -31.1298
lhand 167.898 -118.854
lfingers 7.12502
lthumb -166.041 2609.34
rfemur -28.4143 1.31913 14.3372
rtibia 42.4963
rfoot -11.8971 -12.4894
rtoes 6.25303
lfemur -20.0191 1.33466 -13.4668
ltibia 63.0974
lfoot -6.60702 -4.81413
ltoes -17.6072
2306
root 1.49663 17.3302 -27.7786 1.38314 -51.448 -359.774
lowerback 30.0295 -1.7684 2.53944
upperback 4.7045 -1.272 3.70701
thorax -11.2141 -0.719476 3.2907
lowerneck -9.40034 9.27753 3.80385
upperneck 15.0126 14.14 -12.9215
head 7.38459 5.9627 -3.40503
rclavicle 1.78906e-014 1.59028e-015
rhumerus -21.0307 13.8109 -86.3229
rradius 49.4119
rwrist 6.61234
rhand -19.1482 9.01436
rfingers 7.12502
rthumb 7.16214 -20.8444
lclavicle 1.78906e-014 1.59028e-015
lhumerus -12.4659 -5.22752 90.6363
lradius 42.8923
lwrist -28.0457
lhand 167.256 -118
lfingers 7.12502
lthumb -166.66 2608.45
rfemur -27.8693 1.03766 14.2981
rtibia 42.3777
rfoot -12.0649 -12.567
rtoes 4.77927
lfemur -20.4853 1.51155 -13.4045
ltibia 62.6468
lfoot -7.60281 -4.28125
ltoes -16.0177
2307
root 1.44682 17.3421 -27.7176 1.24697 -51.3646 -359.529
lowerback 31.0047 -1.23903 1.50243
upperback 3.80246 -0.742141 4.63911
thorax -11.9454 -0.444986 4.47208
lowerneck -9.40276 9.1747 3.24867
upperneck 15.7638 14.2424 -13.3077
head 7.63367 5.90205 -3.42979
rclavicle 4.37326e-014 -3.81667e-014
rhumerus -20.9562 14.7226 -86.0231
rradius 48.6978
rwrist 5.46525
rhand -17.3531 8.97695
rfingers 7.12502
rthumb 8.8946 -20.8156
lclavicle 4.37326e-014 -3.81667e-014
lhumerus -13.8409 -4.0506 92.181
lradius 43.2647
lwrist -26.8815
lhand 167.271 -117.981
lfingers 7.12502
lthumb -166.645 2608.43
rfemur -27.5337 1.10434 14.0605
rtibia 42.2329
rfoot -12.308 -12.6848
rtoes 5.48008
lfemur -21.1269 1.88364 -13.4687
ltibia 62.1287
lfoot -8.38215 -3.6232
ltoes -16.9251
2308
root 1.39469 17.3501 -27.6539 1.5712 -51.2944 -359.822
lowerback 30.7094 -1.55388 1.86098
upperback 3.96847 -1.07074 4.50625
thorax -11.6109 -0.618545 4.24295
lowerneck -9.42154 9.43394 3.12674
upperneck 15.6307 14.6015 -13.3096
head 7.61813 6.07183 -3.36708
rclavicle -9.54166e-015 -1.90833e-014
rhumerus -19.7208 15.1006 -87.1523
rradius 47.6501
rwrist 5.30279
rhand -16.9843 8.97454
rfingers 7.12502
rthumb 9.25052 -20.8025
lclavicle -9.54166e-015 -1.90833e-014
lhumerus -14.4383 -2.65536 91.7799
lradius 43.8573
lwrist -26.1361
lhand 168.62 -117.952
lfingers 7.12502
lthumb -165.345 2608.49
rfemur -27.1868 1.24474 14.2191
rtibia 42.0561
rfoot -12.4237 -12.9817
rtoes 3.35195
lfemur -21.7992 2.40319 -13.1367
ltibia 61.6648
lfoot -9.04807 -2.958
ltoes -18.9535
2309
root 1.3415 17.3555 -27.5931 1.51917 -51.2892 -359.814
lowerback 31.3807 -1.02784 1.08282
upperback 3.65446 -0.529728 5.09689
thorax -12.297 -0.317572 5.13281
lowerneck -9.34465 9.22074 2.95936
upperneck 16.0654 14.4652 -13.7409
head 7.76003 5.93581 -3.50098
rclavicle -5.96354e-014 -1.11319e-014
rhumerus -19.5429 14.8492 -86.8122
rradius 47.0518
rwrist 5.5449
rhand -16.5425 9.37382
rfingers 7.12502
rthumb 9.67677 -20.3839
lclavicle -5.96354e-014 -1.11319e-014
lhumerus -15.7594 -2.29337 92.8832
lradius 44.3812
lwrist -23.8977
lhand 166.21 -117.392
lfingers 7.12502
lthumb -167.669 2607.78
rfemur -26.6974 1.34664 14.184
rtibia 41.9103
rfoot -12.6127 -13.1359
rtoes 3.97913
lfemur -22.1834 3.05168 -13.0047
ltibia 61.1201
lfoot -9.71716 -2.25323
ltoes -20.6409
2310
root 1.30203 17.3516 -27.5327 1.93868 -51.0501 -360.262
lowerback 30.9165 -1.53996 2.59972
upperback 4.04674 -0.858957 4.06894
thorax -11.6206 -0.557912 3.29439
lowerneck -9.79174 9.17834 3.90639
upperneck 15.898 14.175 -13.3367
head 7.78976 5.88341 -3.53206
rclavicle 1.94809e-014 -2.78299e-014
rhumerus -18.6503 14.6641 -88.828
rradius 47.0218
rwrist 3.42541
rhand -17.413 8.68152
rfingers 7.12502
rthumb 8.83678 -21.1135
lclavicle 1.94809e-014 -2.78299e-014
lhumerus -15.8417 -2.67019 91.348
lradius 44.4662
lwrist -23.3554
lhand 164.224 -117.992
lfingers 7.12502
lthumb -169.584 2608.27
rfemur -26.3898 1.43926 14.4087
rtibia 41.791
rfoot -12.8243 -13.4076
rtoes 3.21492
lfemur -22.9429 3.23581 -12.5397
ltibia 60.5782
lfoot -9.93887 -1.83524
ltoes -18.6151
2311
root 1.25919 17.3536 -27.4579 2.36105 -50.8024 -360.724
lowerback 32.0718 -0.516012 1.17731
upperback 3.37091 0.311401 5.87714
thorax -13.0075 0.0843385 5.63176
lowerneck -9.90697 8.80143 2.71966
upperneck 16.9555 14.1355 -14.1494
head 8.1457 5.64739 -3.61607
rclavicle 3.18055e-015 -6.36111e-015
rhumerus -18.921 14.7368 -86.6724
rradius 46.3922
rwrist 2.93934
rhand -17.643 9.55791
rfingers 7.12502
rthumb 8.61486 -20.2463
lclavicle 3.18055e-015 -6.36111e-015
lhumerus -17.5079 -0.874474 94.1621
lradius 44.9296
lwrist -23.4316
lhand 153.051 -118.462
lfingers 7.12502
lthumb -180.371 2608.48
rfemur -26.0652 1.39424 14.6397
rtibia 41.6907
rfoot -12.9798 -13.6803
rtoes 1.52755
lfemur -23.6208 3.28593 -12.0787
ltibia 59.9228
lfoot -10.5586 -1.68723
ltoes -19.8574
2312
root 1.21238 17.3565 -27.3874 2.57809 -50.5396 -360.831
lowerback 31.4843 -0.829671 1.83582
upperback 3.69485 0.0131923 5.35431
thorax -12.3344 -0.103134 4.79247
lowerneck -9.66365 8.77971 2.67048
upperneck 16.1792 13.9169 -13.7018
head 7.78174 5.64168 -3.49619
rclavicle -1.59028e-014 4.77083e-014
rhumerus -17.6361 13.8823 -87.808
rradius 45.4044
rwrist 3.17709
rhand -18.1867 10.3883
rfingers 7.12502
rthumb 8.09015 -19.4369
lclavicle -1.59028e-014 4.77083e-014
lhumerus -17.9862 -1.28477 93.4653
lradius 45.6971
lwrist -19.888
lhand 162.604 -119.201
lfingers 7.12502
lthumb -171.147 2609.41
rfemur -25.8293 1.41291 14.6263
rtibia 41.6243
rfoot -13.1913 -14.0218
rtoes 1.63233
lfemur -24.3738 3.33549 -11.8297
ltibia 59.1706
lfoot -11.1135 -1.5073
ltoes -18.6911
